<svg 
  xmlns="http://www.w3.org/2000/svg" 
  width="24" 
  height="24" 
  viewBox="0 0 24 24" 
  fill="none" 
  stroke="currentColor" 
  stroke-width="1.75" 
  stroke-linecap="round" 
  stroke-linejoin="round"
>
  <!-- Ground Line -->
  <line x1="2" y1="21" x2="22" y2="21" />
  
  <!-- Columns -->
  <line x1="4" y1="21" x2="4" y2="10" />
  <line x1="7" y1="21" x2="7" y2="10" />
  <line x1="10" y1="21" x2="10" y2="10" />
  <line x1="14" y1="21" x2="14" y2="10" />
  <line x1="17" y1="21" x2="17" y2="10" />
  <line x1="20" y1="21" x2="20" y2="10" />
  
  <!-- Entablature (Main Horizontal Beam) -->
  <rect x="3" y="7" width="18" height="3" rx="0.5" />
  
  <!-- Quadriga Pedestal -->
  <path d="M7 7V5.5C7 5.22 7.22 5 7.5 5H16.5C16.78 5 17 5.22 17 5.5V7" />
  
  <!-- Quadriga Chariot/Statue Silhouette -->
  <path d="M12 5V2.5" />
  <circle cx="12" cy="2" r="0.75" />
  <path d="M10.5 4.5L12 3.5L13.5 4.5" />
</svg>
