<?xml version="1.0" encoding="UTF-8" standalone="no"?>
<!DOCTYPE svg PUBLIC "-//W3C//DTD SVG 1.1//EN" "http://www.w3.org/Graphics/SVG/1.1/DTD/svg11.dtd">
<svg xmlns="http://www.w3.org/2000/svg" version="1.1" viewBox="90 180 1500 135">
<rect fill="#e7b346" x="-65.75" y="-10.04" transform="translate(159.23,196.56) rotate(-0.1)" width="131.50" height="20.08" rx="0.34"/>
<path fill="#e7b346" d="
  M 382.75 308.40
  A 0.35 0.34 -23.6 0 1 382.51 309.00
  L 352.45 309.00
  A 1.07 1.05 -23.5 0 1 351.74 308.73
  L 281.82 245.11
  A 0.22 0.22 0.0 0 1 281.97 244.73
  Q 322.81 244.79 334.81 244.72
  C 346.17 244.66 355.51 239.27 356.75 227.24
  C 358.01 215.02 351.59 206.55 339.00 206.52
  Q 319.73 206.48 246.65 206.51
  A 0.65 0.65 0.0 0 1 246.00 205.86
  L 246.00 187.37
  A 0.63 0.63 0.0 0 1 246.63 186.74
  Q 289.27 186.79 339.17 186.72
  Q 348.39 186.70 352.68 188.09
  C 375.37 195.40 381.99 223.94 371.77 243.26
  Q 363.35 259.18 346.41 262.32
  C 342.53 263.04 337.58 263.00 334.21 263.39
  A 0.38 0.37 -27.3 0 0 334.00 264.04
  L 382.75 308.40
  Z"
/>
<path fill="#373736" d="
  M 839.00 260.75
  L 839.00 276.52
  A 2.07 2.05 62.2 0 1 838.65 277.67
  Q 832.65 286.63 822.97 287.81
  Q 812.98 289.02 805.42 285.11
  C 798.29 281.43 795.99 274.47 795.63 266.89
  Q 795.05 254.67 796.33 249.08
  C 798.60 239.15 807.09 233.38 817.03 233.09
  Q 829.28 232.72 837.70 242.84
  A 1.20 1.20 0.0 0 1 837.36 244.65
  L 834.24 246.36
  A 1.82 1.81 54.9 0 1 831.99 245.96
  Q 824.33 237.09 814.99 238.99
  C 805.37 240.95 802.80 247.21 802.31 256.65
  Q 801.91 264.33 803.18 271.08
  C 804.73 279.35 812.18 282.74 820.03 282.48
  Q 827.85 282.22 832.78 275.55
  A 1.15 1.09 -28.2 0 0 833.00 274.89
  L 833.00 266.07
  A 0.58 0.57 -90.0 0 0 832.43 265.49
  L 819.16 265.49
  A 0.42 0.42 0.0 0 1 818.74 265.07
  L 818.74 260.47
  A 0.47 0.46 -90.0 0 1 819.20 260.00
  L 838.26 260.00
  A 0.75 0.74 -90.0 0 1 839.00 260.75
  Z"
/>
<path fill="#e7b346" d="
  M 1195.50 260.62
  C 1195.48 269.55 1195.85 278.70 1206.05 281.73
  C 1213.88 284.06 1220.30 281.12 1225.18 275.23
  A 1.46 1.46 0.0 0 1 1227.04 274.90
  L 1230.62 276.97
  A 0.95 0.94 -55.6 0 1 1230.88 278.38
  Q 1223.43 287.66 1212.06 288.14
  C 1201.42 288.59 1191.53 283.19 1189.45 272.27
  Q 1188.48 267.18 1188.50 260.61
  Q 1188.51 254.04 1189.51 248.95
  C 1191.63 238.04 1201.55 232.68 1212.19 233.18
  Q 1223.55 233.71 1230.96 243.03
  A 0.95 0.94 55.8 0 1 1230.69 244.44
  L 1227.11 246.49
  A 1.46 1.46 0.0 0 1 1225.25 246.15
  C 1220.39 240.24 1213.99 237.27 1206.15 239.56
  C 1195.93 242.55 1195.52 251.70 1195.50 260.62
  Z"
/>
<path fill="#373736" d="
  M 470.03 257.83
  L 470.03 262.67
  A 0.33 0.33 0.0 0 1 469.70 263.00
  L 445.53 263.00
  A 0.33 0.33 0.0 0 0 445.20 263.33
  L 445.20 281.43
  A 0.33 0.33 0.0 0 0 445.53 281.76
  L 473.88 281.76
  A 0.33 0.33 0.0 0 1 474.21 282.09
  L 474.21 286.92
  A 0.33 0.33 0.0 0 1 473.88 287.25
  L 438.85 287.25
  A 0.33 0.33 0.0 0 1 438.52 286.92
  L 438.52 234.33
  A 0.33 0.33 0.0 0 1 438.85 234.00
  L 473.14 234.00
  A 0.33 0.33 0.0 0 1 473.47 234.33
  L 473.47 239.16
  A 0.33 0.33 0.0 0 1 473.14 239.49
  L 445.54 239.49
  A 0.33 0.33 0.0 0 0 445.21 239.82
  L 445.21 257.17
  A 0.33 0.33 0.0 0 0 445.54 257.50
  L 469.70 257.50
  A 0.33 0.33 0.0 0 1 470.03 257.83
  Z"
/>
<path fill="#373736" d="
  M 548.56 259.18
  Q 555.27 271.82 555.39 272.06
  Q 557.12 275.83 558.66 279.55
  A 0.16 0.16 0.0 0 0 558.97 279.49
  L 558.97 234.21
  A 0.25 0.24 -90.0 0 1 559.21 233.96
  L 565.08 233.96
  A 0.25 0.25 0.0 0 1 565.33 234.21
  L 565.33 286.55
  A 0.66 0.65 -90.0 0 1 564.68 287.21
  L 556.96 287.21
  A 1.08 1.07 -13.8 0 1 556.01 286.64
  Q 547.85 271.41 542.85 261.99
  Q 536.14 249.35 536.03 249.11
  Q 534.30 245.34 532.76 241.62
  A 0.16 0.16 0.0 0 0 532.45 241.68
  L 532.45 286.96
  A 0.25 0.24 -90.0 0 1 532.21 287.21
  L 526.34 287.21
  A 0.25 0.25 0.0 0 1 526.09 286.96
  L 526.09 234.62
  A 0.66 0.65 -90.0 0 1 526.74 233.96
  L 534.46 233.96
  A 1.08 1.07 -13.8 0 1 535.41 234.53
  Q 543.57 249.76 548.56 259.18
  Z"
/>
<path fill="#373736" d="
  M 627.10 256.90
  A 0.60 0.60 0.0 0 0 627.70 257.50
  L 651.45 257.50
  A 0.44 0.43 0.0 0 1 651.89 257.93
  L 651.91 262.58
  A 0.42 0.42 0.0 0 1 651.49 263.00
  L 627.60 262.98
  A 0.50 0.50 0.0 0 0 627.10 263.48
  L 627.10 281.21
  A 0.53 0.52 0.0 0 0 627.62 281.73
  L 655.71 281.72
  A 0.36 0.36 0.0 0 1 656.07 282.08
  L 656.08 286.87
  A 0.36 0.36 0.0 0 1 655.72 287.23
  L 620.76 287.22
  A 0.34 0.33 0.0 0 1 620.42 286.89
  L 620.43 234.35
  A 0.33 0.33 0.0 0 1 620.76 234.02
  L 654.98 234.03
  A 0.37 0.36 0.0 0 1 655.35 234.39
  L 655.34 239.16
  A 0.36 0.36 0.0 0 1 654.98 239.52
  L 627.69 239.51
  A 0.58 0.57 0.0 0 0 627.11 240.08
  L 627.10 256.90
  Z"
/>
<path fill="#373736" d="
  M 748.90 287.26
  L 741.66 287.26
  A 0.24 0.24 0.0 0 1 741.45 287.14
  L 729.33 265.17
  A 1.26 1.25 75.2 0 0 728.24 264.53
  L 715.22 264.53
  A 0.56 0.56 0.0 0 0 714.66 265.09
  L 714.66 286.93
  A 0.40 0.39 90.0 0 1 714.27 287.33
  L 708.44 287.33
  A 0.40 0.40 0.0 0 1 708.04 286.93
  L 708.04 234.32
  A 0.32 0.31 -89.1 0 1 708.36 234.00
  Q 714.50 234.08 727.15 233.94
  Q 734.75 233.86 738.02 235.34
  C 745.92 238.90 747.84 247.51 745.30 255.36
  Q 743.34 261.43 736.53 263.34
  A 0.40 0.39 -22.6 0 0 736.29 263.91
  L 749.04 287.02
  A 0.16 0.16 0.0 0 1 748.90 287.26
  Z
  M 714.81 239.67
  L 714.67 258.69
  A 0.25 0.25 0.0 0 0 714.92 258.94
  L 730.19 259.05
  A 9.28 8.73 0.4 0 0 739.53 250.39
  L 739.55 248.33
  A 9.28 8.73 0.4 0 0 730.33 239.53
  L 715.06 239.43
  A 0.25 0.25 0.0 0 0 714.81 239.67
  Z"
/>
<rect fill="#373736" x="890.74" y="234.00" width="6.76" height="53.24" rx="0.38"/>
<path fill="#373736" d="
  M 959.20 256.90
  A 0.60 0.60 0.0 0 0 959.80 257.50
  L 983.58 257.50
  A 0.44 0.43 0.0 0 1 984.02 257.93
  L 984.04 262.58
  A 0.42 0.42 0.0 0 1 983.62 263.00
  L 959.70 262.99
  A 0.50 0.50 0.0 0 0 959.20 263.49
  L 959.20 281.24
  A 0.53 0.52 0.0 0 0 959.73 281.76
  L 987.85 281.75
  A 0.36 0.36 0.0 0 1 988.21 282.11
  L 988.22 286.90
  A 0.36 0.36 0.0 0 1 987.86 287.26
  L 952.86 287.25
  A 0.34 0.33 0.0 0 1 952.52 286.92
  L 952.52 234.32
  A 0.33 0.33 0.0 0 1 952.85 233.99
  L 987.11 234.00
  A 0.37 0.36 0.0 0 1 987.48 234.36
  L 987.47 239.14
  A 0.36 0.36 0.0 0 1 987.11 239.50
  L 959.79 239.49
  A 0.58 0.57 0.0 0 0 959.21 240.06
  L 959.20 256.90
  Z"
/>
<path fill="#e7b346" d="
  M 1080.97 287.25
  L 1073.74 287.23
  A 0.24 0.24 0.0 0 1 1073.53 287.11
  L 1061.47 265.15
  A 1.25 1.25 0.0 0 0 1060.38 264.51
  L 1047.38 264.48
  A 0.56 0.56 0.0 0 0 1046.82 265.04
  L 1046.78 286.85
  A 0.40 0.39 -89.9 0 1 1046.39 287.25
  L 1040.57 287.24
  A 0.40 0.40 0.0 0 1 1040.17 286.84
  L 1040.27 234.30
  A 0.32 0.31 -89.0 0 1 1040.59 233.98
  Q 1046.72 234.08 1059.35 233.96
  Q 1066.94 233.89 1070.20 235.38
  C 1078.09 238.95 1079.99 247.55 1077.43 255.38
  Q 1075.47 261.44 1068.66 263.34
  A 0.40 0.39 -22.5 0 0 1068.42 263.91
  L 1081.11 287.01
  A 0.16 0.16 0.0 0 1 1080.97 287.25
  Z
  M 1046.74 239.85
  L 1046.78 258.71
  A 0.32 0.32 0.0 0 0 1047.10 259.03
  L 1062.44 259.00
  A 9.36 9.10 -0.1 0 0 1071.78 249.89
  L 1071.78 248.59
  A 9.36 9.10 -0.1 0 0 1062.40 239.50
  L 1047.06 239.53
  A 0.32 0.32 0.0 0 0 1046.74 239.85
  Z"
/>
<rect fill="#e7b346" x="1130.49" y="234.00" width="6.76" height="53.24" rx="0.37"/>
<path fill="#e7b346" d="
  M 1300.75 257.63
  Q 1312.01 257.63 1312.95 257.64
  A 0.30 0.29 0.1 0 0 1313.25 257.35
  L 1313.25 234.29
  A 0.41 0.40 90.0 0 1 1313.65 233.88
  L 1319.61 233.88
  A 0.39 0.39 0.0 0 1 1320.00 234.27
  L 1320.00 286.81
  A 0.32 0.32 0.0 0 1 1319.68 287.13
  L 1313.58 287.13
  A 0.34 0.33 90.0 0 1 1313.25 286.79
  L 1313.25 263.78
  A 0.62 0.61 1.7 0 0 1312.67 263.17
  Q 1311.93 263.13 1300.75 263.13
  Q 1289.56 263.13 1288.83 263.17
  A 0.62 0.61 -1.6 0 0 1288.24 263.78
  L 1288.24 286.79
  A 0.34 0.33 -90.0 0 1 1287.91 287.13
  L 1281.81 287.13
  A 0.32 0.32 0.0 0 1 1281.49 286.81
  L 1281.49 234.27
  A 0.39 0.39 0.0 0 1 1281.88 233.88
  L 1287.84 233.88
  A 0.41 0.40 -90.0 0 1 1288.24 234.29
  L 1288.24 257.35
  A 0.30 0.29 -0.0 0 0 1288.54 257.64
  Q 1289.48 257.63 1300.75 257.63
  Z"
/>
<path fill="#e7b346" d="
  M 1387.87 234.00
  Q 1397.53 233.99 1406.81 234.01
  A 0.44 0.43 0.2 0 1 1407.25 234.44
  L 1407.25 239.05
  A 0.45 0.45 0.0 0 1 1406.80 239.50
  L 1391.77 239.50
  A 0.52 0.52 0.0 0 0 1391.25 240.02
  L 1391.25 286.55
  A 0.65 0.65 0.0 0 1 1390.69 287.20
  Q 1390.30 287.25 1387.88 287.25
  Q 1385.45 287.25 1385.06 287.20
  A 0.65 0.65 0.0 0 1 1384.50 286.55
  L 1384.50 240.02
  A 0.52 0.52 0.0 0 0 1383.98 239.50
  L 1368.95 239.50
  A 0.45 0.45 0.0 0 1 1368.50 239.05
  L 1368.50 234.44
  A 0.44 0.43 -0.2 0 1 1368.94 234.01
  Q 1378.22 233.99 1387.87 234.00
  Z"
/>
<path fill="#e7b346" d="
  M 1462.45 256.90
  A 0.60 0.60 0.0 0 0 1463.05 257.50
  L 1486.84 257.50
  A 0.44 0.43 -0.0 0 1 1487.28 257.93
  L 1487.30 262.58
  A 0.42 0.42 0.0 0 1 1486.88 263.00
  L 1462.96 263.00
  A 0.50 0.50 0.0 0 0 1462.46 263.50
  L 1462.46 281.25
  A 0.53 0.52 -0.0 0 0 1462.99 281.77
  L 1491.12 281.76
  A 0.36 0.36 0.0 0 1 1491.48 282.12
  L 1491.49 286.91
  A 0.36 0.36 0.0 0 1 1491.13 287.27
  L 1456.12 287.26
  A 0.34 0.33 -0.0 0 1 1455.78 286.93
  L 1455.77 234.32
  A 0.33 0.33 0.0 0 1 1456.10 233.99
  L 1490.37 233.99
  A 0.37 0.36 -0.0 0 1 1490.74 234.35
  L 1490.73 239.13
  A 0.36 0.36 0.0 0 1 1490.37 239.49
  L 1463.04 239.49
  A 0.58 0.57 -0.0 0 0 1462.46 240.06
  L 1462.45 256.90
  Z"
/>
<path fill="#e7b346" d="
  M 1584.16 287.21
  L 1576.94 287.19
  A 0.24 0.24 0.0 0 1 1576.73 287.07
  L 1564.70 265.13
  A 1.25 1.24 75.4 0 0 1563.62 264.48
  L 1550.63 264.45
  A 0.56 0.56 0.0 0 0 1550.07 265.01
  L 1550.01 286.79
  A 0.40 0.39 -89.8 0 1 1549.62 287.19
  L 1543.81 287.17
  A 0.40 0.40 0.0 0 1 1543.41 286.77
  L 1543.55 234.30
  A 0.32 0.31 -89.0 0 1 1543.87 233.98
  Q 1550.00 234.08 1562.61 233.97
  Q 1570.19 233.91 1573.45 235.40
  C 1581.32 238.97 1583.21 247.56 1580.66 255.38
  Q 1578.69 261.43 1571.89 263.32
  A 0.40 0.39 -22.5 0 0 1571.65 263.89
  L 1584.30 286.97
  A 0.16 0.16 0.0 0 1 1584.16 287.21
  Z
  M 1550.03 239.91
  L 1549.97 258.55
  A 0.44 0.44 0.0 0 0 1550.41 258.99
  L 1565.55 259.04
  A 9.44 9.13 0.2 0 0 1575.02 249.94
  L 1575.02 248.68
  A 9.44 9.13 0.2 0 0 1565.61 239.52
  L 1550.47 239.47
  A 0.44 0.44 0.0 0 0 1550.03 239.91
  Z"
/>
<rect fill="#e7b346" x="93.51" y="240.52" width="128.26" height="20.24" rx="0.45"/>
<path fill="#e7b346" d="
  M 93.75 308.46
  L 93.75 290.27
  A 0.52 0.52 0.0 0 1 94.27 289.75
  L 261.58 289.75
  A 0.52 0.52 0.0 0 1 261.94 289.89
  L 281.00 308.08
  A 0.52 0.52 0.0 0 1 280.64 308.98
  L 94.27 308.98
  A 0.52 0.52 0.0 0 1 93.75 308.46
  Z"
/>
</svg>
