<?xml version="1.0" encoding="UTF-8" standalone="no"?>
<!DOCTYPE svg PUBLIC "-//W3C//DTD SVG 1.1//EN" "http://www.w3.org/Graphics/SVG/1.1/DTD/svg11.dtd">
<svg xmlns="http://www.w3.org/2000/svg" version="1.1" viewBox="0.00 0.00 1685.00 1685.00">
<defs>
  <!-- Clip path to round the corners of all elements in the SVG -->
  <clipPath id="rounded-clip">
    <rect x="0" y="0" width="1685.00" height="1685.00" rx="320" ry="320" />
  </clipPath>
</defs>

<!-- Solid dark background to support white monogram and give a premium feel -->
<rect x="0" y="0" width="1685.00" height="1685.00" rx="320" ry="320" fill="#0b0f14" />

<!-- Smooth rounded gold outer border -->
<rect x="25.00" y="25.00" width="1635.00" height="1635.00" rx="295" ry="295" stroke="#e7b346" stroke-width="30" fill="none" stroke-opacity="0.9" />

<g clip-path="url(#rounded-clip)">
<g stroke-width="2.00" fill="none" stroke-linecap="butt">
<path stroke="#e7b346" stroke-opacity="0.753" vector-effect="non-scaling-stroke" d="
  M 1684.01 1.41
  A 0.54 0.54 0.0 0 0 1683.47 0.87
  L 1.53 0.87
  A 0.54 0.54 0.0 0 0 0.99 1.41
  L 0.99 1683.93
  A 0.54 0.54 0.0 0 0 1.53 1684.47
  L 1683.47 1684.47
  A 0.54 0.54 0.0 0 0 1684.01 1683.93
  L 1684.01 1.41"
/>
<path stroke="#f3d9a3" vector-effect="non-scaling-stroke" d="
  M 789.02 598.75
  A 0.77 0.77 0.0 0 0 788.25 597.98
  L 265.23 597.98
  A 0.77 0.77 0.0 0 0 264.46 598.75
  L 264.46 676.65
  A 0.77 0.77 0.0 0 0 265.23 677.42
  L 788.25 677.42
  A 0.77 0.77 0.0 0 0 789.02 676.65
  L 789.02 598.75"
/>
<path stroke="#f3d9a3" vector-effect="non-scaling-stroke" d="
  M 1223.30 904.32
  C 1255.62 903.70 1290.52 901.41 1319.08 884.83
  C 1386.29 845.81 1409.94 763.00 1386.14 691.34
  C 1370.34 643.79 1331.77 608.07 1281.70 599.85
  Q 1272.74 598.38 1253.73 598.45
  Q 1230.25 598.54 1127.50 598.24
  Q 1123.72 598.22 1122.25 598.22
  Q 938.40 598.20 874.38 598.23
  A 0.40 0.40 0.0 0 0 873.98 598.63
  L 873.98 676.95
  A 0.45 0.45 0.0 0 0 874.43 677.40
  Q 1049.95 677.11 1073.50 677.09
  C 1150.14 676.99 1206.88 676.99 1240.86 677.02
  C 1266.46 677.05 1290.39 681.88 1305.54 703.90
  Q 1314.88 717.47 1317.22 737.21
  C 1321.67 774.63 1306.15 810.53 1269.10 824.17
  Q 1253.27 829.99 1237.77 830.08
  Q 1143.39 830.62 1017.80 831.04
  A 0.24 0.24 0.0 0 0 1017.64 831.45
  L 1298.38 1086.86
  A 2.28 2.27 -23.8 0 0 1299.91 1087.45
  L 1420.05 1086.65
  A 0.40 0.40 0.0 0 0 1420.32 1085.95
  L 1223.13 904.77
  A 0.26 0.26 0.0 0 1 1223.30 904.32"
/>
<path stroke="#f3d9a3" vector-effect="non-scaling-stroke" d="
  M 776.28 814.18
  A 0.52 0.52 0.0 0 0 775.76 813.66
  L 265.00 813.66
  A 0.52 0.52 0.0 0 0 264.48 814.18
  L 264.48 893.34
  A 0.52 0.52 0.0 0 0 265.00 893.86
  L 775.76 893.86
  A 0.52 0.52 0.0 0 0 776.28 893.34
  L 776.28 814.18"
/>
<path stroke="#f3d9a3" vector-effect="non-scaling-stroke" d="
  M 265.35 1087.06
  A 0.34 0.34 0.0 0 0 265.69 1087.40
  L 1015.07 1086.35
  A 0.34 0.34 0.0 0 0 1015.31 1085.77
  L 936.95 1010.87
  A 0.34 0.34 0.0 0 0 936.71 1010.78
  L 265.18 1010.78
  A 0.34 0.34 0.0 0 0 264.84 1011.12
  L 265.35 1087.06"
/>
</g>
<path fill="#e7b345" fill-opacity="0.502" d="
  M 1685.00 0.00
  L 1685.00 1685.00
  L 0.00 1685.00
  L 0.00 0.00
  L 1685.00 0.00
  Z
  M 1684.01 1.41
  A 0.54 0.54 0.0 0 0 1683.47 0.87
  L 1.53 0.87
  A 0.54 0.54 0.0 0 0 0.99 1.41
  L 0.99 1683.93
  A 0.54 0.54 0.0 0 0 1.53 1684.47
  L 1683.47 1684.47
  A 0.54 0.54 0.0 0 0 1684.01 1683.93
  L 1684.01 1.41
  Z"
/>
<path fill="#e7b346" d="
  M 1684.01 1683.93
  A 0.54 0.54 0.0 0 1 1683.47 1684.47
  L 1.53 1684.47
  A 0.54 0.54 0.0 0 1 0.99 1683.93
  L 0.99 1.41
  A 0.54 0.54 0.0 0 1 1.53 0.87
  L 1683.47 0.87
  A 0.54 0.54 0.0 0 1 1684.01 1.41
  L 1684.01 1683.93
  Z
  M 789.02 598.75
  A 0.77 0.77 0.0 0 0 788.25 597.98
  L 265.23 597.98
  A 0.77 0.77 0.0 0 0 264.46 598.75
  L 264.46 676.65
  A 0.77 0.77 0.0 0 0 265.23 677.42
  L 788.25 677.42
  A 0.77 0.77 0.0 0 0 789.02 676.65
  L 789.02 598.75
  Z
  M 1223.30 904.32
  C 1255.62 903.70 1290.52 901.41 1319.08 884.83
  C 1386.29 845.81 1409.94 763.00 1386.14 691.34
  C 1370.34 643.79 1331.77 608.07 1281.70 599.85
  Q 1272.74 598.38 1253.73 598.45
  Q 1230.25 598.54 1127.50 598.24
  Q 1123.72 598.22 1122.25 598.22
  Q 938.40 598.20 874.38 598.23
  A 0.40 0.40 0.0 0 0 873.98 598.63
  L 873.98 676.95
  A 0.45 0.45 0.0 0 0 874.43 677.40
  Q 1049.95 677.11 1073.50 677.09
  C 1150.14 676.99 1206.88 676.99 1240.86 677.02
  C 1266.46 677.05 1290.39 681.88 1305.54 703.90
  Q 1314.88 717.47 1317.22 737.21
  C 1321.67 774.63 1306.15 810.53 1269.10 824.17
  Q 1253.27 829.99 1237.77 830.08
  Q 1143.39 830.62 1017.80 831.04
  A 0.24 0.24 0.0 0 0 1017.64 831.45
  L 1298.38 1086.86
  A 2.28 2.27 -23.8 0 0 1299.91 1087.45
  L 1420.05 1086.65
  A 0.40 0.40 0.0 0 0 1420.32 1085.95
  L 1223.13 904.77
  A 0.26 0.26 0.0 0 1 1223.30 904.32
  Z
  M 776.28 814.18
  A 0.52 0.52 0.0 0 0 775.76 813.66
  L 265.00 813.66
  A 0.52 0.52 0.0 0 0 264.48 814.18
  L 264.48 893.34
  A 0.52 0.52 0.0 0 0 265.00 893.86
  L 775.76 893.86
  A 0.52 0.52 0.0 0 0 776.28 893.34
  L 776.28 814.18
  Z
  M 265.35 1087.06
  A 0.34 0.34 0.0 0 0 265.69 1087.40
  L 1015.07 1086.35
  A 0.34 0.34 0.0 0 0 1015.31 1085.77
  L 936.95 1010.87
  A 0.34 0.34 0.0 0 0 936.71 1010.78
  L 265.18 1010.78
  A 0.34 0.34 0.0 0 0 264.84 1011.12
  L 265.35 1087.06
  Z"
/>
<rect fill="#0b0f14" x="264.46" y="597.98" width="524.56" height="79.44" rx="0.77"/>
<path fill="#0b0f14" d="
  M 1223.30 904.32
  A 0.26 0.26 0.0 0 0 1223.13 904.77
  L 1420.32 1085.95
  A 0.40 0.40 0.0 0 1 1420.05 1086.65
  L 1299.91 1087.45
  A 2.28 2.27 -23.8 0 1 1298.38 1086.86
  L 1017.64 831.45
  A 0.24 0.24 0.0 0 1 1017.80 831.04
  Q 1143.39 830.62 1237.77 830.08
  Q 1253.27 829.99 1269.10 824.17
  C 1306.15 810.53 1321.67 774.63 1317.22 737.21
  Q 1314.88 717.47 1305.54 703.90
  C 1290.39 681.88 1266.46 677.05 1240.86 677.02
  C 1206.88 676.99 1150.14 676.99 1073.50 677.09
  Q 1049.95 677.11 874.43 677.40
  A 0.45 0.45 0.0 0 1 873.98 676.95
  L 873.98 598.63
  A 0.40 0.40 0.0 0 1 874.38 598.23
  Q 938.40 598.20 1122.25 598.22
  Q 1123.72 598.22 1127.50 598.24
  Q 1230.25 598.54 1253.73 598.45
  Q 1272.74 598.38 1281.70 599.85
  C 1331.77 608.07 1370.34 643.79 1386.14 691.34
  C 1409.94 763.00 1386.29 845.81 1319.08 884.83
  C 1290.52 901.41 1255.62 903.70 1223.30 904.32
  Z"
/>
<rect fill="#0b0f14" x="264.48" y="813.66" width="511.80" height="80.20" rx="0.52"/>
<path fill="#0b0f14" d="
  M 265.35 1087.06
  L 264.84 1011.12
  A 0.34 0.34 0.0 0 1 265.18 1010.78
  L 936.71 1010.78
  A 0.34 0.34 0.0 0 1 936.95 1010.87
  L 1015.31 1085.77
  A 0.34 0.34 0.0 0 1 1015.07 1086.35
  L 265.69 1087.40
  A 0.34 0.34 0.0 0 1 265.35 1087.06
  Z"
/>
</g>
</svg>
