<?xml version="1.0" encoding="UTF-8" standalone="no"?>
<!DOCTYPE svg PUBLIC "-//W3C//DTD SVG 1.1//EN" "http://www.w3.org/Graphics/SVG/1.1/DTD/svg11.dtd">
<svg xmlns="http://www.w3.org/2000/svg" version="1.1" viewBox="0.00 0.00 1684.00 1685.00">
<rect fill="#e7b346" x="263.76" y="598.00" width="524.50" height="79.40" rx="0.65"/>
<path fill="#e7b346" d="
  M 1016.97 831.46
  A 0.27 0.27 0.0 0 1 1017.15 830.99
  Q 1046.73 831.02 1064.50 830.98
  Q 1064.58 830.98 1068.25 830.91
  Q 1081.36 830.64 1125.50 830.70
  Q 1126.88 830.70 1128.25 830.67
  Q 1137.36 830.45 1186.25 830.46
  Q 1187.23 830.46 1188.75 830.43
  Q 1200.76 830.22 1234.74 830.19
  C 1275.36 830.16 1308.78 807.23 1315.82 766.09
  C 1321.89 730.57 1309.83 690.25 1270.71 680.40
  Q 1258.02 677.20 1247.91 677.04
  Q 1247.46 677.03 1076.04 677.07
  Q 1075.20 677.07 1074.28 677.07
  Q 1013.41 677.33 893.58 677.25
  C 887.81 677.25 880.44 677.68 873.81 677.46
  A 0.59 0.59 0.0 0 1 873.24 676.87
  L 873.24 598.56
  A 0.32 0.32 0.0 0 1 873.56 598.24
  Q 1099.49 598.24 1123.75 598.24
  C 1124.63 598.24 1125.69 598.50 1126.76 598.50
  Q 1181.70 598.52 1247.61 598.44
  Q 1272.25 598.41 1281.80 599.96
  C 1333.31 608.35 1372.64 647.34 1387.12 696.62
  C 1405.63 759.59 1389.20 828.61 1337.84 871.35
  Q 1312.11 892.76 1278.75 899.25
  C 1259.96 902.90 1240.94 903.98 1222.52 904.28
  A 0.25 0.25 0.0 0 0 1222.36 904.71
  L 1419.54 1085.89
  A 0.44 0.44 0.0 0 1 1419.25 1086.65
  L 1298.69 1087.44
  A 0.94 0.91 65.7 0 1 1298.06 1087.19
  L 1016.97 831.46
  Z"
/>
<rect fill="#e7b346" x="263.75" y="813.68" width="511.74" height="80.18" rx="0.43"/>
<path fill="#e7b346" d="
  M 264.64 1087.10
  L 264.14 1011.11
  A 0.32 0.32 0.0 0 1 264.46 1010.79
  L 936.00 1010.79
  A 0.32 0.32 0.0 0 1 936.22 1010.88
  L 1014.59 1085.75
  A 0.32 0.32 0.0 0 1 1014.37 1086.30
  L 264.96 1087.42
  A 0.32 0.32 0.0 0 1 264.64 1087.10
  Z"
/>
</svg>
